<svg width="14" height="14" viewBox="0 0 14 14" fill="none" xmlns="http://www.w3.org/2000/svg">
<path d="M9 7C9 8.1046 8.1046 9 7 9C5.8954 9 5 8.1046 5 7C5 5.8954 5.8954 5 7 5C8.1046 5 9 5.8954 9 7Z" stroke="white" stroke-linecap="round" stroke-linejoin="round"/>
<path d="M7.60307 1.04003C7.46587 1 7.3106 1 7 1C6.6894 1 6.53413 1 6.39693 1.04003C6.19613 1.09863 6.01873 1.21872 5.88973 1.38341C5.8016 1.49592 5.74393 1.64011 5.62861 1.92848C5.46279 2.34301 5.00262 2.55647 4.57905 2.41533L4.19853 2.28854C3.9286 2.19857 3.79363 2.15357 3.66131 2.14587C3.46693 2.13454 3.27347 2.18021 3.10467 2.27727C2.98977 2.34334 2.88917 2.44394 2.68798 2.64513C2.47415 2.85897 2.36723 2.96588 2.29931 3.08793C2.19951 3.26723 2.1573 3.47289 2.17839 3.67701C2.19275 3.81593 2.2489 3.95633 2.36121 4.23711C2.5371 4.67682 2.36789 5.17919 1.96181 5.42289L1.77681 5.53391C1.49354 5.70387 1.35191 5.78887 1.24903 5.90587C1.15799 6.0094 1.08934 6.13067 1.04739 6.262C1 6.4104 1 6.5772 1 6.91087C1 7.30593 1 7.5034 1.06308 7.67253C1.11882 7.82193 1.20948 7.9558 1.32749 8.06307C1.46105 8.1844 1.64263 8.25707 2.00577 8.40233C2.37689 8.55073 2.56797 8.96273 2.44157 9.34193L2.29814 9.77227C2.19879 10.0703 2.14911 10.2193 2.1446 10.3657C2.13917 10.5418 2.18033 10.7161 2.26391 10.8711C2.33343 11.0001 2.44452 11.1112 2.66667 11.3333C2.88882 11.5555 2.9999 11.6665 3.12883 11.7361C3.28387 11.8197 3.45822 11.8609 3.63427 11.8554C3.78068 11.8509 3.92971 11.8012 4.22776 11.7019L4.57908 11.5847C5.00262 11.4436 5.4628 11.657 5.62861 12.0715C5.74393 12.3599 5.8016 12.5041 5.88973 12.6166C6.01873 12.7813 6.19613 12.9014 6.39693 12.96C6.53413 13 6.6894 13 7 13C7.3106 13 7.46587 13 7.60307 12.96C7.80387 12.9014 7.98127 12.7813 8.11027 12.6166C8.1984 12.5041 8.25607 12.3599 8.3714 12.0715C8.5372 11.657 8.9974 11.4436 9.42087 11.5849L9.77193 11.7019C10.07 11.8013 10.2191 11.8509 10.3655 11.8555C10.5415 11.8609 10.7159 11.8197 10.8709 11.7361C10.9998 11.6666 11.1109 11.5555 11.3331 11.3334C11.5552 11.1113 11.6663 11.0001 11.7358 10.8712C11.8194 10.7162 11.8605 10.5418 11.8551 10.3658C11.8506 10.2194 11.8009 10.0703 11.7016 9.77227L11.5583 9.34227C11.4318 8.96293 11.6229 8.5508 11.9942 8.40233C12.3573 8.25707 12.5389 8.1844 12.6725 8.06307C12.7905 7.9558 12.8812 7.82193 12.9369 7.67253C13 7.5034 13 7.30593 13 6.91087C13 6.5772 13 6.4104 12.9526 6.262C12.9107 6.13067 12.842 6.0094 12.751 5.90587C12.6481 5.78887 12.5065 5.70387 12.2232 5.53391L12.0379 5.42277C11.6319 5.17911 11.4626 4.67676 11.6385 4.23705C11.7508 3.95629 11.807 3.81589 11.8213 3.67695C11.8424 3.47284 11.8002 3.26718 11.7004 3.08787C11.6325 2.96583 11.5256 2.85891 11.3117 2.64508C11.1105 2.44389 11.0099 2.34329 10.8951 2.27722C10.7263 2.18016 10.5328 2.13449 10.3384 2.14581C10.2061 2.15353 10.0711 2.19851 9.8012 2.28849L9.42093 2.41525C8.9974 2.55643 8.5372 2.343 8.3714 1.92848C8.25607 1.64011 8.1984 1.49592 8.11027 1.38341C7.98127 1.21872 7.80387 1.09863 7.60307 1.04003Z" stroke="white" stroke-linecap="round" stroke-linejoin="round"/>
</svg>

